# xmcd
#
# Track frame offsets:
#	150
#	12016
#	24724
#	37031
#	49839
#	63322
#	76554
#	90502
#	103694
#	117039
#	127883
#	142701
#	155639
#	167042
#	179503
#	193998
#	206865
#	219654
#	230960
#	243541
#
# Disc length: 3406 seconds
#
# Revision: 1
# Processed by: cddbd v1.5.2PL0 Copyright (c) Steve Scherf et al.
# Submitted via: audiograbber 1.83.01
#
DISCID=160d4c14
DTITLE=Various Artist - Way Out West
DYEAR=1949
DGENRE=Country
TTITLE0=Gene Autry - Back In The Saddle Again
TTITLE1=Tex Ritter and His Texans - Jingle Jangle Jingle
TTITLE2=Rex Allen - The Cattle Call
TTITLE3=Roy Rogers - Don't Fence Me In
TTITLE4=Jimmy Wakely - Song Of The Sierras
TTITLE5=Hank Snow - The Texas Cowboy
TTITLE6=Jimmie Rodgers - Cowhand's Last Ride
TTITLE7=Rex Griffin - The Yodelling Cowboy's Last Song
TTITLE8=Jimmie Davis - Ridin' Down The Arizona Trail
TTITLE9=Gene Autry - The Last Round-Up
TTITLE10=Tex Ritter - Take Me Back To My Boots And Saddle
TTITLE11=The Sons Of The Pioneers - Roving Cowboy
TTITLE12=Rex Allen - Queen Of The Rodeo
TTITLE13=Merle Travis - Out On The Open Range
TTITLE14=Ken Maynard - The Lone Star Trail
TTITLE15=Jimmie Wakely - Oklahoma Hills
TTITLE16=Roy Rogers - Blue Shadows On The Trail
TTITLE17=Gene Autry - Cool Water
TTITLE18=Tex Ritter - A-Ridin' Old Paint
TTITLE19=Tthe Sons Of The Pioneers - Tumbling Tumbleweeds
EXTD=
EXTT0=
EXTT1=
EXTT2=
EXTT3=
EXTT4=
EXTT5=
EXTT6=
EXTT7=
EXTT8=
EXTT9=
EXTT10=
EXTT11=
EXTT12=
EXTT13=
EXTT14=
EXTT15=
EXTT16=
EXTT17=
EXTT18=
EXTT19=
PLAYORDER=
